HIERARCHY
ROOT Hips
{
	OFFSET 0.00 0.00 0.00
	CHANNELS 6 Xposition Yposition Zposition Yrotation Xrotation Zrotation
	JOINT Spine
	{
		OFFSET	0.0000	9.2263	1.5771
		CHANNELS 3 Xrotation Yrotation Zrotation
		JOINT Spine1
		{
			OFFSET	0.0000	16.2540	-0.1656
			CHANNELS 3 Xrotation Yrotation Zrotation
			JOINT Spine2
			{
				OFFSET	0.0000	13.6396	-1.2923
				CHANNELS 3 Xrotation Yrotation Zrotation
				JOINT Neck
				{
					OFFSET	0.0000	13.8774	-4.3542
					CHANNELS 3 Xrotation Yrotation Zrotation
					JOINT Neck1
					{
						OFFSET	0.0000	4.3400	0.9269
						CHANNELS 3 Xrotation Yrotation Zrotation
						JOINT Head
						{
							OFFSET	0.0000	4.0266	0.8585
							CHANNELS 3 Xrotation Yrotation Zrotation
							End Site
							{
								OFFSET 0.0000 23.0297 0.1231
							}
						}
					}
				}
				JOINT LeftShoulder
				{
					OFFSET	6.1442	10.1870	-3.7932
					CHANNELS 3 Zrotation Xrotation Yrotation
					JOINT LeftArm
					{
						OFFSET	12.3191	-1.1130	-1.7935
						CHANNELS 3 Zrotation Xrotation Yrotation
						JOINT LeftForeArm
						{
							OFFSET	27.6870	0.0000	0.0000
							CHANNELS 3 Xrotation Zrotation Yrotation
							JOINT LeftHand
							{
								OFFSET	27.8738	0.0000	0.0000
								CHANNELS 3 Zrotation Yrotation Xrotation
								JOINT LeftHandThumb1
								{
									OFFSET	2.3785	-1.0029	2.6209
									CHANNELS 3 Zrotation Xrotation Yrotation
									JOINT LeftHandThumb2
									{
										OFFSET	3.3624	-1.0029	2.8398
										CHANNELS 3 Zrotation Xrotation Yrotation
										JOINT LeftHandThumb3
										{
											OFFSET	4.5018	-1.3445	2.1783
											CHANNELS 3 Zrotation Xrotation Yrotation
											End Site
											{
												OFFSET 2.6000 -1.0000 1.0000
											}
										}
									}
								}
								JOINT LeftHandMiddle1
								{
									OFFSET	10.4639	0.6148	0.4298
									CHANNELS 3 Zrotation Xrotation Yrotation
									JOINT LeftHandMiddle2
									{
										OFFSET	5.7921	0.0000	0.0000
										CHANNELS 3 Zrotation Xrotation Yrotation
										JOINT LeftHandMiddle3
										{
											OFFSET	3.7132	0.0000	0.0000
											CHANNELS 3 Zrotation Xrotation Yrotation
											End Site
											{
												OFFSET 2.3000 0.0000 0.0000
											}
										}
									}
								}
								JOINT LeftHandIndex1
								{
									OFFSET	10.3945	0.6148	2.7055
									CHANNELS 3 Zrotation Xrotation Yrotation
									JOINT LeftHandIndex2
									{
										OFFSET	5.5493	0.0000	0.0000
										CHANNELS 3 Zrotation Xrotation Yrotation
										JOINT LeftHandIndex3
										{
											OFFSET	3.3911	0.0000	0.0000
											CHANNELS 3 Zrotation Xrotation Yrotation
											End Site
											{
												OFFSET 2.5000 0.0000 0.0000
											}
										}
									}
								}
								JOINT LeftHandRing1
								{
									OFFSET	10.3252	0.3211	-1.8755
									CHANNELS 3 Zrotation Xrotation Yrotation
									JOINT LeftHandRing2
									{
										OFFSET	5.4452	0.0000	0.0000
										CHANNELS 3 Zrotation Xrotation Yrotation
										JOINT LeftHandRing3
										{
											OFFSET	3.7132	0.0000	0.0000
											CHANNELS 3 Zrotation Xrotation Yrotation
											End Site
											{
												OFFSET 2.0000 0.0000 0.0000
											}
										}
									}
								}
								JOINT LeftHandPinky1
								{
									OFFSET	10.0130	-0.0783	-3.9671
									CHANNELS 3 Zrotation Xrotation Yrotation
									JOINT LeftHandPinky2
									{
										OFFSET	3.6763	0.0000	0.0000
										CHANNELS 3 Zrotation Xrotation Yrotation
										JOINT LeftHandPinky3
										{
											OFFSET	2.8113	0.0000	0.0000
											CHANNELS 3 Zrotation Xrotation Yrotation
											End Site
											{
												OFFSET 2.9000 0.0000 0.0000
											}
										}
									}
								}
							}
						}
					}
				}
				JOINT RightShoulder
				{
					OFFSET	-6.1402	10.1870	-3.7932
					CHANNELS 3 Zrotation Xrotation Yrotation
					JOINT RightArm
					{
						OFFSET	-12.3231	-1.1130	-1.7935
						CHANNELS 3 Zrotation Xrotation Yrotation
						JOINT RightForeArm
						{
							OFFSET	-27.6870	0.0000	0.0000
							CHANNELS 3 Xrotation Zrotation Yrotation
							JOINT RightHand
							{
								OFFSET	-27.8738	0.0000	0.0000
								CHANNELS 3 Zrotation Yrotation Xrotation
								JOINT RightHandThumb1
								{
									OFFSET	-2.5178	-0.9367	2.5137
									CHANNELS 3 Zrotation Xrotation Yrotation
									JOINT RightHandThumb2
									{
										OFFSET	-3.2638	-1.0870	2.9669
										CHANNELS 3 Zrotation Xrotation Yrotation
										JOINT RightHandThumb3
										{
											OFFSET	-4.4165	-1.3703	2.1350
											CHANNELS 3 Zrotation Xrotation Yrotation
											End Site
											{
												OFFSET -2.6000 -1.0000 1.0000
											}
										}
									}
								}
								JOINT RightHandIndex1
								{
									OFFSET	-10.4665	0.4896	2.7120
									CHANNELS 3 Zrotation Xrotation Yrotation
									JOINT RightHandIndex2
									{
										OFFSET	-5.3768	0.0000	0.0000
										CHANNELS 3 Zrotation Xrotation Yrotation
										JOINT RightHandIndex3
										{
											OFFSET	-3.3855	0.0000	0.0000
											CHANNELS 3 Zrotation Xrotation Yrotation
											End Site
											{
												OFFSET -2.6000 0.0000 0.0000
											}
										}
									}
								}
								JOINT RightHandMiddle1
								{
									OFFSET	-10.7596	0.4896	0.4278
									CHANNELS 3 Zrotation Xrotation Yrotation
									JOINT RightHandMiddle2
									{
										OFFSET	-5.6168	0.0000	0.0000
										CHANNELS 3 Zrotation Xrotation Yrotation
										JOINT RightHandMiddle3
										{
											OFFSET	-3.7364	0.0000	0.0000
											CHANNELS 3 Zrotation Xrotation Yrotation
											End Site
											{
												OFFSET -2.3000 0.0000 0.0000
											}
										}
									}
								}
								JOINT RightHandRing1
								{
									OFFSET	-10.4702	0.3879	-1.9363
									CHANNELS 3 Zrotation Xrotation Yrotation
									JOINT RightHandRing2
									{
										OFFSET	-5.4013	0.0000	0.0000
										CHANNELS 3 Zrotation Xrotation Yrotation
										JOINT RightHandRing3
										{
											OFFSET	-3.3916	0.0000	0.0000
											CHANNELS 3 Zrotation Xrotation Yrotation
											End Site
											{
												OFFSET -2.2000 0.0000 0.0000
											}
										}
									}
								}
								JOINT RightHandPinky1
								{
									OFFSET	-9.9715	-0.1191	-3.9540
									CHANNELS 3 Zrotation Xrotation Yrotation
									JOINT RightHandPinky2
									{
										OFFSET	-3.6528	0.0000	0.0000
										CHANNELS 3 Zrotation Xrotation Yrotation
										JOINT RightHandPinky3
										{
											OFFSET	-2.7820	0.0000	0.0000
											CHANNELS 3 Zrotation Xrotation Yrotation
											End Site
											{
												OFFSET -2.9000 0.0000 0.0000
											}
										}
									}
								}
							}
						}
					}
				}
			}
		}
	}
	JOINT LeftUpLeg
	{
		OFFSET	9.6338	-3.2733	0.0000
		CHANNELS 3 Xrotation Yrotation Zrotation
		JOINT LeftLeg
		{
			OFFSET	0.0000	-41.7300	-1.7300
			CHANNELS 3 Xrotation Yrotation Zrotation
			JOINT LeftFoot
			{
				OFFSET	0.0126	-39.1900	-0.8477
				CHANNELS 3 Xrotation Yrotation Zrotation
				JOINT LeftToeBase
				{
					OFFSET	-0.1833	-12.1931	8.2823
					CHANNELS 3 Xrotation Yrotation Zrotation
					End Site
					{
						OFFSET 0.0000 0.0000 10.1681
					}
				}
			}
		}
	}
	JOINT RightUpLeg
	{
		OFFSET	-9.6338	-3.2733	0.0000
		CHANNELS 3 Xrotation Yrotation Zrotation
		JOINT RightLeg
		{
			OFFSET	0.0000	-41.7300	-1.7300
			CHANNELS 3 Xrotation Yrotation Zrotation
			JOINT RightFoot
			{
				OFFSET	0.0126	-39.1900	-0.8477
				CHANNELS 3 Xrotation Yrotation Zrotation
				JOINT RightToeBase
				{
					OFFSET	-0.1833	-12.1931	8.2823
					CHANNELS 3 Xrotation Yrotation Zrotation
					End Site
					{
						OFFSET 0.0032 0.0000 10.1681
					}
				}
			}
		}
	}
}
MOTION
Frames: 7
Frame Time: 0.0333333
236.5854 93.6342 -72.7031 176.4266 -4.0530 4.5956 10.5879 -9.6568 -2.4404 1.1804 -1.5982 -0.2179 1.1923 -1.5917 -0.1895 0.6700 -2.3741 -1.0053 -0.0000 0.0000 -0.0000 -14.5157 -3.2176 -5.1858 -14.3157 0.0169 3.4107 -17.1641 6.4938 -22.5846 -0.0000 -0.0000 -128.7877 -13.1636 13.9810 -64.7166 5.1058 7.8208 6.8930 11.9730 1.1216 15.6757 14.9786 -13.0865 -15.3443 -42.2226 0.0044 -5.4519 -122.6433 0.0231 -0.0127 -35.9643 0.0029 -0.0088 -42.4207 0.0046 0.3546 -122.5387 0.0231 -0.0127 -36.2592 0.0029 -0.0089 -52.0502 0.0065 0.4263 -122.7240 0.0232 -0.0127 -35.8205 0.0029 -0.0088 -56.1580 0.0073 -7.5949 -111.2523 0.0205 -0.0140 -48.6700 0.0051 -0.0113 19.4707 3.4822 9.8516 61.3799 -28.2969 -2.0499 -0.0000 0.0000 6.9034 8.0727 -12.9591 42.9504 -1.2924 1.6456 -8.4809 -1.3901 4.4170 -16.5879 -18.1707 -5.4290 -6.2254 14.1936 0.0003 0.0023 32.3707 0.0012 0.0042 11.5005 0.0002 0.0016 21.9165 0.0007 0.0033 32.4007 0.0012 0.0042 11.2059 0.0001 0.0015 25.5021 0.0009 0.0037 32.4536 0.0012 0.0042 11.0635 0.0002 0.0015 26.9926 0.0010 0.0039 32.5432 0.0012 0.0043 10.5172 0.0001 0.0014 11.3157 -0.8779 -10.7880 8.5317 4.9738 1.5369 -13.5968 3.3707 3.5428 -4.8341 0.0000 -0.0000 -24.2983 3.8506 -8.1215 11.6670 -10.0731 -1.7769 -8.8909 -14.0095 17.6346 22.6959 -0.0000 0.0000 
237.0275 93.2165 -75.9365 177.1834 -3.9738 4.8471 10.5639 -9.7265 -2.4863 1.2713 -1.6059 -0.1432 1.2841 -1.5988 -0.1154 0.6369 -2.4229 -1.0367 -0.0000 0.0000 -0.0000 -13.6113 -4.0342 -5.1421 -14.8247 -0.0891 3.9049 -19.2929 10.7488 -19.8900 -0.0000 0.0000 -127.3044 -11.5137 11.9302 -59.3309 5.1058 7.8207 6.8930 11.9730 1.1216 15.6757 14.9786 -13.0865 -15.3443 -42.2226 0.0044 -5.4519 -122.6433 0.0231 -0.0127 -35.9643 0.0029 -0.0088 -42.4207 0.0045 0.3546 -122.5387 0.0231 -0.0127 -36.2592 0.0029 -0.0089 -52.0502 0.0065 0.4263 -122.7240 0.0232 -0.0126 -35.8205 0.0028 -0.0088 -56.1580 0.0073 -7.5949 -111.2523 0.0205 -0.0140 -48.6700 0.0051 -0.0113 19.5860 3.4302 9.6018 61.8080 -28.7279 -1.7066 0.0000 0.0000 6.0910 8.7794 -14.3278 45.3060 -1.2925 1.6456 -8.4809 -1.3901 4.4170 -16.5879 -18.1707 -5.4290 -6.2254 14.1935 0.0003 0.0023 32.3707 0.0012 0.0042 11.5005 0.0002 0.0016 21.9165 0.0007 0.0033 32.4007 0.0012 0.0042 11.2059 0.0001 0.0015 25.5021 0.0009 0.0037 32.4536 0.0012 0.0043 11.0635 0.0001 0.0015 26.9926 0.0010 0.0039 32.5432 0.0012 0.0043 10.5172 0.0001 0.0014 13.7615 -0.6324 -10.6342 7.7279 3.3484 1.5223 -13.3414 3.3937 3.2975 -5.6574 0.0000 -0.0000 -24.5542 4.0356 -8.4156 10.3358 -10.0363 -0.6935 -5.3905 -5.8615 13.4719 13.1055 -0.0000 0.0000 
237.5568 92.8224 -79.3236 178.3550 -4.1478 4.5889 10.4725 -9.8493 -1.8778 1.4179 -1.6394 -0.0284 1.4297 -1.6318 -0.0015 0.5882 -2.4588 -1.0774 -0.0000 0.0000 -0.0000 -13.0548 -4.6616 -5.2576 -15.2912 -0.1955 4.3861 -22.5886 14.8106 -16.2994 -0.0000 -0.0000 -125.5718 -9.9124 9.8072 -53.3061 5.1058 7.8208 6.8930 11.9730 1.1216 15.6757 14.9786 -13.0865 -15.3442 -42.2226 0.0044 -5.4519 -122.6433 0.0231 -0.0127 -35.9643 0.0029 -0.0088 -42.4207 0.0045 0.3546 -122.5387 0.0231 -0.0127 -36.2592 0.0029 -0.0089 -52.0502 0.0065 0.4263 -122.7240 0.0232 -0.0126 -35.8205 0.0028 -0.0088 -56.1580 0.0073 -7.5949 -111.2523 0.0205 -0.0140 -48.6700 0.0051 -0.0113 19.8312 3.3744 9.2796 61.8261 -28.8907 -1.1144 -0.0000 0.0000 5.4577 9.0220 -15.4114 48.1469 -1.2924 1.6456 -8.4809 -1.3901 4.4170 -16.5879 -18.1707 -5.4290 -6.2254 14.1936 0.0003 0.0023 32.3707 0.0012 0.0042 11.5005 0.0002 0.0016 21.9165 0.0007 0.0033 32.4007 0.0012 0.0042 11.2059 0.0002 0.0015 25.5021 0.0009 0.0037 32.4536 0.0012 0.0042 11.0635 0.0001 0.0015 26.9926 0.0010 0.0039 32.5432 0.0012 0.0043 10.5172 0.0001 0.0014 15.0516 0.0136 -9.7409 9.7553 1.6334 1.5120 -13.1707 3.3888 3.0865 -7.6569 0.0000 -0.0000 -25.2677 4.4536 -8.1147 12.8174 -10.0049 0.0158 1.6554 -0.8126 8.8985 4.9556 0.0000 0.0000 
238.1577 92.5972 -82.8865 179.6829 -4.3200 3.6916 10.2916 -9.7430 -0.7779 1.5582 -1.6420 0.1444 1.5676 -1.6343 0.1697 0.6243 -2.5214 -1.0466 -0.0000 0.0000 -0.0000 -12.7003 -5.3168 -5.4716 -15.5820 -0.2784 4.7534 -27.1199 18.5679 -11.8029 0.0000 -0.0000 -123.3497 -8.2269 7.6363 -47.0099 5.1058 7.8207 6.8930 11.9730 1.1216 15.6757 14.9786 -13.0865 -15.3443 -42.2226 0.0045 -5.4519 -122.6433 0.0232 -0.0127 -35.9643 0.0029 -0.0088 -42.4207 0.0046 0.3546 -122.5387 0.0231 -0.0127 -36.2592 0.0029 -0.0089 -52.0502 0.0065 0.4263 -122.7240 0.0232 -0.0126 -35.8205 0.0028 -0.0088 -56.1580 0.0073 -7.5949 -111.2523 0.0205 -0.0140 -48.6700 0.0051 -0.0113 20.1271 3.3261 8.9653 61.4197 -28.8763 -0.6125 -0.0000 -0.0000 5.0963 8.7193 -15.8979 50.0096 -1.2925 1.6456 -8.4809 -1.3901 4.4170 -16.5879 -18.1707 -5.4290 -6.2254 14.1936 0.0003 0.0023 32.3707 0.0012 0.0042 11.5005 0.0002 0.0016 21.9165 0.0007 0.0033 32.4007 0.0012 0.0042 11.2059 0.0001 0.0015 25.5021 0.0009 0.0037 32.4536 0.0012 0.0043 11.0635 0.0001 0.0015 26.9926 0.0010 0.0039 32.5432 0.0012 0.0043 10.5172 0.0001 0.0014 15.9159 0.9419 -7.9934 12.3185 -0.0572 1.5140 -11.5048 3.4283 3.0006 -12.1447 0.0000 -0.0000 -25.2260 4.6007 -7.1348 15.5861 -8.4954 0.5397 8.0039 -0.0229 5.3138 0.9445 -0.0000 0.0000 
238.8183 92.5618 -86.5486 -179.4041 -4.4395 2.4893 10.0610 -9.2217 0.2002 1.6115 -1.5605 0.3924 1.6187 -1.5527 0.4156 0.7862 -2.6366 -0.8619 -0.0000 0.0000 -0.0000 -12.0375 -6.2424 -5.4645 -15.5819 -0.3315 4.9967 -32.5740 21.7130 -6.7435 -0.0000 0.0000 -120.5807 -6.2872 5.4612 -40.7735 5.1058 7.8207 6.8930 11.9730 1.1216 15.6757 14.9786 -13.0865 -15.3443 -42.2226 0.0044 -5.4519 -122.6433 0.0231 -0.0127 -35.9642 0.0029 -0.0088 -42.4207 0.0045 0.3546 -122.5387 0.0231 -0.0127 -36.2592 0.0029 -0.0089 -52.0502 0.0065 0.4263 -122.7240 0.0232 -0.0127 -35.8205 0.0028 -0.0088 -56.1580 0.0073 -7.5949 -111.2523 0.0205 -0.0140 -48.6700 0.0051 -0.0113 20.3708 3.2860 8.7087 60.7714 -28.8551 -0.3760 0.0000 0.0000 5.0119 8.1562 -15.6522 49.9221 -1.2925 1.6456 -8.4809 -1.3901 4.4170 -16.5879 -18.1707 -5.4290 -6.2254 14.1935 0.0003 0.0023 32.3707 0.0012 0.0042 11.5005 0.0002 0.0016 21.9165 0.0007 0.0033 32.4007 0.0012 0.0042 11.2059 0.0002 0.0015 25.5021 0.0009 0.0037 32.4536 0.0012 0.0042 11.0635 0.0001 0.0015 26.9926 0.0010 0.0039 32.5432 0.0012 0.0043 10.5172 0.0001 0.0014 16.3311 2.0700 -5.8697 15.1149 -1.4347 1.5210 -7.8181 3.6033 2.6661 -18.6219 0.0000 -0.0000 -24.9579 4.4319 -5.6238 19.0248 -7.0165 0.9181 9.0425 -0.5946 3.5437 0.1611 -0.0000 0.0000 
239.5460 92.6479 -90.1734 -178.8399 -4.7299 1.5760 9.9060 -8.4943 0.6122 1.5355 -1.4214 0.6737 1.5422 -1.4131 0.6952 1.0178 -2.8011 -0.4905 -0.0000 0.0000 -0.0000 -10.7556 -7.5270 -4.8369 -15.2382 -0.3549 5.1286 -38.3036 23.9835 -1.5590 -0.0000 0.0000 -117.5552 -4.1524 3.3370 -35.1581 5.1058 7.8208 6.8930 11.9731 1.1216 15.6757 14.9786 -13.0865 -15.3443 -42.2226 0.0044 -5.4519 -122.6433 0.0231 -0.0127 -35.9642 0.0029 -0.0088 -42.4207 0.0045 0.3546 -122.5387 0.0231 -0.0127 -36.2592 0.0029 -0.0089 -52.0502 0.0065 0.4263 -122.7240 0.0232 -0.0126 -35.8205 0.0028 -0.0088 -56.1580 0.0073 -7.5949 -111.2523 0.0205 -0.0140 -48.6700 0.0051 -0.0113 20.5434 3.2437 8.4803 60.1741 -28.8276 -0.2153 -0.0000 -0.0000 5.1465 7.6852 -14.7490 48.2374 -1.2925 1.6456 -8.4809 -1.3901 4.4170 -16.5879 -18.1707 -5.4290 -6.2254 14.1936 0.0003 0.0023 32.3707 0.0012 0.0042 11.5005 0.0002 0.0016 21.9165 0.0007 0.0033 32.4007 0.0012 0.0042 11.2059 0.0002 0.0015 25.5021 0.0009 0.0037 32.4536 0.0012 0.0042 11.0635 0.0001 0.0015 26.9926 0.0010 0.0039 32.5432 0.0012 0.0043 10.5172 0.0001 0.0014 15.8670 3.2037 -3.9210 19.2365 -2.5415 1.5322 -2.2838 3.9314 1.6864 -26.1841 0.0000 -0.0000 -24.4850 3.9837 -4.2268 22.8856 -6.6508 1.0028 6.6598 -0.8132 2.9167 -0.6287 -0.0000 -0.0000 
240.3112 92.7465 -93.6381 -177.7596 -5.0931 1.0737 9.9405 -7.9834 0.6455 1.3633 -1.3132 0.8867 1.3707 -1.3043 0.9082 1.2017 -2.9982 -0.0001 -0.0000 0.0000 -0.0000 -9.1656 -9.1343 -3.5006 -14.6188 -0.3449 5.1256 -43.5644 25.3118 3.3200 -0.0000 0.0000 -114.7156 -1.9708 1.1470 -30.6599 5.1058 7.8207 6.8930 11.9730 1.1216 15.6756 14.9786 -13.0865 -15.3442 -42.2226 0.0044 -5.4519 -122.6433 0.0231 -0.0126 -35.9643 0.0029 -0.0088 -42.4207 0.0045 0.3546 -122.5387 0.0231 -0.0127 -36.2592 0.0029 -0.0089 -52.0502 0.0065 0.4263 -122.7240 0.0232 -0.0127 -35.8205 0.0029 -0.0088 -56.1580 0.0073 -7.5949 -111.2523 0.0205 -0.0140 -48.6700 0.0051 -0.0113 20.7088 3.1876 8.2096 59.7865 -28.5622 0.2177 0.0000 -0.0000 5.5519 7.5842 -13.3988 46.0613 -1.2925 1.6456 -8.4809 -1.3901 4.4170 -16.5879 -18.1707 -5.4290 -6.2254 14.1936 0.0003 0.0023 32.3707 0.0012 0.0042 11.5005 0.0002 0.0016 21.9165 0.0007 0.0033 32.4007 0.0012 0.0042 11.2059 0.0001 0.0015 25.5021 0.0009 0.0037 32.4536 0.0012 0.0042 11.0635 0.0001 0.0015 26.9926 0.0010 0.0039 32.5432 0.0012 0.0043 10.5172 0.0001 0.0014 13.5763 3.9781 -2.0147 26.0351 -3.5918 1.5618 4.4186 4.2992 0.2038 -31.3980 0.0000 -0.0000 -23.7585 3.3614 -3.3457 26.7791 -7.5054 0.7716 3.1465 -0.7296 3.0987 -1.8758 -0.0000 -0.0000 
